<mxfile host="app.diagrams.net" modified="2023-10-11T19:34:21.831Z" agent="Mozilla/5.0 (Windows NT 10.0; Win64; x64) AppleWebKit/537.36 (KHTML, like Gecko) Chrome/117.0.0.0 Safari/537.36" version="22.0.4" etag="4fPjhoRcdeXjf3lfdlzY" type="github">
  <diagram name="Page-1" id="L-9mo0oUW1Mu2ZCE2Obg">
    <mxGraphModel>
      <root>
        <mxCell id="0" />
        <mxCell id="1" parent="0" />
      </root>
    </mxGraphModel>
  </diagram>
</mxfile>
